<?xml version="1.0" standalone="no"?>
<!DOCTYPE svg PUBLIC "-//W3C//DTD SVG 20010904//EN"
 "http://www.w3.org/TR/2001/REC-SVG-20010904/DTD/svg10.dtd">
<svg version="1.0" xmlns="http://www.w3.org/2000/svg"
 width="260.000000pt" height="260.000000pt" viewBox="0 0 260.000000 260.000000"
 preserveAspectRatio="xMidYMid meet">
<metadata>
Created by potrace 1.11, written by Peter Selinger 2001-2013
</metadata>
<g transform="translate(0.000000,260.000000) scale(0.100000,-0.100000)"
fill="#000000" stroke="none">
<path d="M0 1300 l0 -1300 1300 0 1300 0 0 1300 0 1300 -1300 0 -1300 0 0
-1300z m1340 1159 c110 -13 129 -22 103 -51 -21 -24 -16 -34 84 -151 129 -151
333 -306 538 -409 97 -49 293 -130 348 -143 15 -4 29 -10 32 -14 6 -11 -102
-231 -114 -231 -40 0 -345 144 -461 218 l-65 42 -3 -80 -3 -80 -204 0 -205 0
0 -130 0 -130 430 0 430 0 0 -100 0 -100 -430 0 -430 0 0 -325 0 -325 470 0
470 0 0 -95 0 -95 -1025 0 -1025 0 0 95 0 95 455 0 455 0 0 325 0 325 -425 0
-425 0 0 100 0 100 425 0 425 0 0 130 0 130 -200 0 -200 0 0 64 0 65 -94 -63
c-52 -35 -134 -83 -183 -108 -90 -47 -261 -118 -282 -118 -15 0 -114 211 -104
220 4 3 48 21 98 39 212 78 439 209 595 344 121 104 238 252 326 411 34 63 38
66 68 62 17 -3 74 -11 126 -17z m640 -1486 c60 -20 70 -40 32 -59 -17 -8 -35
-40 -62 -105 -31 -78 -124 -275 -136 -288 -2 -3 -189 56 -205 65 -4 2 14 55
41 116 26 62 64 163 85 224 l38 111 76 -23 c42 -13 101 -31 131 -41z m-1133
-70 c68 -116 146 -285 135 -294 -12 -12 -194 -110 -197 -107 -1 2 -31 64 -67
138 -36 74 -81 162 -101 195 l-36 60 102 52 c56 29 103 52 104 52 1 1 28 -43
60 -96z"/>
<path d="M1259 2203 c-59 -99 -198 -269 -289 -356 l-102 -97 443 0 c244 0 439
4 434 8 -6 4 -35 27 -67 50 -81 62 -214 203 -303 323 -43 57 -81 105 -85 107
-4 2 -18 -14 -31 -35z"/>
</g>
</svg>
